<svg xmlns="http://www.w3.org/2000/svg" xmlns:xlink="http://www.w3.org/1999/xlink" width="500" zoomAndPan="magnify" viewBox="0 0 375 374.999991" height="500" preserveAspectRatio="xMidYMid meet" version="1.0"><defs><clipPath id="1c29a48db4"><path d="M 8 8.046875 L 367 8.046875 L 367 367 L 8 367 Z M 8 8.046875 " clip-rule="nonzero"/></clipPath><clipPath id="7d354997da"><path d="M 74.746094 72.445312 L 301 72.445312 L 301 302.433594 L 74.746094 302.433594 Z M 74.746094 72.445312 " clip-rule="nonzero"/></clipPath></defs><rect x="-37.5" width="450" fill="#ffffff" y="-37.499999" height="449.999989" fill-opacity="1"/><rect x="-37.5" width="450" fill="#ffffff" y="-37.499999" height="449.999989" fill-opacity="1"/><path fill="#2563eb" d="M 355.378906 187.523438 C 355.378906 280.222656 280.234375 355.367188 187.53125 355.367188 C 94.828125 355.367188 19.683594 280.222656 19.683594 187.523438 C 19.683594 94.820312 94.828125 19.675781 187.53125 19.675781 C 280.222656 19.675781 355.378906 94.820312 355.378906 187.523438 Z M 355.378906 187.523438 " fill-opacity="1" fill-rule="nonzero"/><g clip-path="url(#1c29a48db4)"><path fill="#2563eb" d="M 187.523438 8.046875 C 88.566406 8.046875 8.046875 88.566406 8.046875 187.523438 C 8.046875 286.488281 88.566406 366.996094 187.523438 366.996094 C 286.476562 366.996094 366.996094 286.476562 366.996094 187.523438 C 367.007812 88.566406 286.488281 8.046875 187.523438 8.046875 Z M 187.523438 365.921875 C 89.15625 365.921875 9.132812 285.898438 9.132812 187.53125 C 9.132812 89.15625 89.15625 9.132812 187.523438 9.132812 C 285.886719 9.132812 365.910156 89.15625 365.910156 187.523438 C 365.921875 285.886719 285.886719 365.921875 187.523438 365.921875 Z M 187.523438 365.921875 " fill-opacity="1" fill-rule="nonzero"/></g><g clip-path="url(#7d354997da)"><path fill="#fef6e4" d="M 193.941406 108.648438 L 74.875 108.648438 L 74.875 265.152344 L 193.949219 265.152344 L 193.949219 108.648438 Z M 199.195312 257.914062 L 219.726562 261.804688 L 265.980469 100.457031 L 147.167969 72.472656 L 139.1875 103.382812 L 196.566406 103.382812 C 198.015625 103.382812 199.195312 104.5625 199.195312 106.023438 Z M 164.703125 270.414062 L 234.882812 302.574219 L 300.089844 160.285156 L 259.621094 141.738281 L 224.132812 265.550781 C 223.730469 266.925781 222.328125 267.730469 220.972656 267.386719 L 199.199219 263.257812 L 199.199219 267.792969 C 199.199219 269.238281 198.019531 270.417969 196.574219 270.417969 L 164.703125 270.417969 Z M 164.703125 270.414062 " fill-opacity="1" fill-rule="nonzero"/></g></svg>